<?xml version="1.0" encoding="UTF-8" standalone="no"?>
<!-- Created with Inkscape (http://www.inkscape.org/) -->

<svg
   xmlns:ns0="http://www.iki.fi/pav/software/textext/"
   xmlns:dc="http://purl.org/dc/elements/1.1/"
   xmlns:cc="http://creativecommons.org/ns#"
   xmlns:rdf="http://www.w3.org/1999/02/22-rdf-syntax-ns#"
   xmlns:svg="http://www.w3.org/2000/svg"
   xmlns="http://www.w3.org/2000/svg"
   xmlns:sodipodi="http://sodipodi.sourceforge.net/DTD/sodipodi-0.dtd"
   xmlns:inkscape="http://www.inkscape.org/namespaces/inkscape"
   width="161.72191mm"
   height="51.217052mm"
   viewBox="0 0 573.03038 181.47774"
   id="svg2"
   version="1.1"
   inkscape:version="0.91 r13725"
   sodipodi:docname="coneTest.svg">
  <sodipodi:namedview
     id="base"
     pagecolor="#ffffff"
     bordercolor="#666666"
     borderopacity="1.0"
     inkscape:pageopacity="0.0"
     inkscape:pageshadow="2"
     inkscape:zoom="1.1478938"
     inkscape:cx="365.00994"
     inkscape:cy="51.163094"
     inkscape:document-units="px"
     inkscape:current-layer="layer1"
     showgrid="false"
     inkscape:window-width="1440"
     inkscape:window-height="806"
     inkscape:window-x="0"
     inkscape:window-y="1"
     inkscape:window-maximized="1"
     fit-margin-top="0"
     fit-margin-left="0"
     fit-margin-right="0"
     fit-margin-bottom="0" />
  <defs
     id="defs4">
    <marker
       inkscape:isstock="true"
       style="overflow:visible"
       id="marker5902"
       refX="0"
       refY="0"
       orient="auto"
       inkscape:stockid="Arrow2Mend">
      <path
         transform="scale(-0.6,-0.6)"
         d="M 8.7185878,4.0337352 -2.2072895,0.01601326 8.7185884,-4.0017078 c -1.7454984,2.3720609 -1.7354408,5.6174519 -6e-7,8.035443 z"
         style="fill:#000080;fill-opacity:1;fill-rule:evenodd;stroke:#000080;stroke-width:0.625;stroke-linejoin:round;stroke-opacity:1"
         id="path5904"
         inkscape:connector-curvature="0" />
    </marker>
    <marker
       inkscape:collect="always"
       inkscape:stockid="Arrow2Mend"
       orient="auto"
       refY="0"
       refX="0"
       id="marker5309"
       style="overflow:visible"
       inkscape:isstock="true">
      <path
         id="path5311"
         style="fill:#000080;fill-opacity:1;fill-rule:evenodd;stroke:#000080;stroke-width:0.625;stroke-linejoin:round;stroke-opacity:1"
         d="M 8.7185878,4.0337352 -2.2072895,0.01601326 8.7185884,-4.0017078 c -1.7454984,2.3720609 -1.7354408,5.6174519 -6e-7,8.035443 z"
         transform="scale(-0.6,-0.6)"
         inkscape:connector-curvature="0" />
    </marker>
    <marker
       inkscape:isstock="true"
       style="overflow:visible"
       id="marker4657"
       refX="0"
       refY="0"
       orient="auto"
       inkscape:stockid="Arrow2Mend">
      <path
         transform="scale(-0.6,-0.6)"
         d="M 8.7185878,4.0337352 -2.2072895,0.01601326 8.7185884,-4.0017078 c -1.7454984,2.3720609 -1.7354408,5.6174519 -6e-7,8.035443 z"
         style="fill:#000080;fill-opacity:1;fill-rule:evenodd;stroke:#000080;stroke-width:0.625;stroke-linejoin:round;stroke-opacity:1"
         id="path4659"
         inkscape:connector-curvature="0" />
    </marker>
    <marker
       inkscape:isstock="true"
       style="overflow:visible"
       id="Arrow2Lend"
       refX="0"
       refY="0"
       orient="auto"
       inkscape:stockid="Arrow2Lend">
      <path
         transform="matrix(-1.1,0,0,-1.1,-1.1,0)"
         d="M 8.7185878,4.0337352 -2.2072895,0.01601326 8.7185884,-4.0017078 c -1.7454984,2.3720609 -1.7354408,5.6174519 -6e-7,8.035443 z"
         style="fill:#000080;fill-opacity:1;fill-rule:evenodd;stroke:#000080;stroke-width:0.625;stroke-linejoin:round;stroke-opacity:1"
         id="path4238"
         inkscape:connector-curvature="0" />
    </marker>
    <marker
       inkscape:isstock="true"
       style="overflow:visible"
       id="Arrow1Lend"
       refX="0"
       refY="0"
       orient="auto"
       inkscape:stockid="Arrow1Lend">
      <path
         transform="matrix(-0.8,0,0,-0.8,-10,0)"
         style="fill:#000080;fill-opacity:1;fill-rule:evenodd;stroke:#000080;stroke-width:1pt;stroke-opacity:1"
         d="M 0,0 5,-5 -12.5,0 5,5 0,0 Z"
         id="path4220"
         inkscape:connector-curvature="0" />
    </marker>
    <marker
       inkscape:isstock="true"
       style="overflow:visible"
       id="Arrow1Mend"
       refX="0"
       refY="0"
       orient="auto"
       inkscape:stockid="Arrow1Mend">
      <path
         transform="matrix(-0.4,0,0,-0.4,-4,0)"
         style="fill:#000080;fill-opacity:1;fill-rule:evenodd;stroke:#000080;stroke-width:1pt;stroke-opacity:1"
         d="M 0,0 5,-5 -12.5,0 5,5 0,0 Z"
         id="path4226"
         inkscape:connector-curvature="0" />
    </marker>
  </defs>
  <metadata
     id="metadata7">
    <rdf:RDF>
      <cc:Work
         rdf:about="">
        <dc:format>image/svg+xml</dc:format>
        <dc:type
           rdf:resource="http://purl.org/dc/dcmitype/StillImage" />
        <dc:title></dc:title>
      </cc:Work>
    </rdf:RDF>
  </metadata>
  <g
     id="layer1"
     inkscape:groupmode="layer"
     inkscape:label="Layer 1"
     transform="translate(-87.407414,-632.82498)">
    <circle
       style="fill:#000000;fill-opacity:1;stroke:none;stroke-width:4;stroke-miterlimit:4;stroke-dasharray:none;stroke-dashoffset:0;stroke-opacity:0.56172844"
       id="ellipse4205"
       cx="167.93785"
       cy="548.04352"
       r="0" />
    <g
       transform="translate(96.974648,4.4818717e-7)"
       id="g6578">
      <path
         style="fill:none;fill-rule:evenodd;stroke:#800080;stroke-width:4;stroke-linecap:butt;stroke-linejoin:miter;stroke-miterlimit:4;stroke-dasharray:none;stroke-opacity:1"
         d="m 345,694.50505 55,0.71429 -0.71429,43.57143 67.85715,-0.71429 -0.71429,-45 54.28572,0"
         id="path5747"
         inkscape:connector-curvature="0" />
      <g
         id="g5789"
         transform="translate(-24.285714,82.857143)">
        <path
           sodipodi:nodetypes="ccc"
           style="fill:none;fill-rule:evenodd;stroke:#800000;stroke-width:2;stroke-linecap:butt;stroke-linejoin:miter;stroke-miterlimit:4;stroke-dasharray:4, 2;stroke-dashoffset:0;stroke-opacity:1"
           d="m 389.38874,616.87368 69.28826,30.23278 67.94635,-30.6512"
           id="path5753"
           inkscape:connector-curvature="0" />
        <g
           transform="translate(229.87746,102.1367)"
           id="g5741">
          <path
             style="fill:#000080;fill-rule:evenodd;stroke:#000080;stroke-width:2;stroke-linecap:butt;stroke-linejoin:miter;stroke-miterlimit:4;stroke-dasharray:none;stroke-opacity:1;marker-end:url(#marker5309)"
             d="m 228.29449,546.27578 0,-48.9924"
             id="path5743"
             inkscape:connector-curvature="0" />
          <circle
             r="8.3337584"
             cy="544.508"
             cx="228.04195"
             id="circle5745"
             style="fill:#000000;fill-opacity:1;stroke:none;stroke-width:4;stroke-miterlimit:4;stroke-dasharray:none;stroke-dashoffset:0;stroke-opacity:0.56172844" />
        </g>
      </g>
      <g
         transform="translate(36.428572,36.428572)"
         id="g5795">
        <path
           inkscape:connector-curvature="0"
           id="path5797"
           d="m 389.38874,616.87368 69.28826,30.23278 67.94635,-30.6512"
           style="fill:none;fill-rule:evenodd;stroke:#800000;stroke-width:2;stroke-linecap:butt;stroke-linejoin:miter;stroke-miterlimit:4;stroke-dasharray:4, 2;stroke-dashoffset:0;stroke-opacity:1"
           sodipodi:nodetypes="ccc" />
        <g
           id="g5799"
           transform="translate(229.87746,102.1367)">
          <path
             inkscape:connector-curvature="0"
             id="path5801"
             d="m 228.29449,546.27578 0,-48.9924"
             style="fill:#000080;fill-rule:evenodd;stroke:#000080;stroke-width:2;stroke-linecap:butt;stroke-linejoin:miter;stroke-miterlimit:4;stroke-dasharray:none;stroke-opacity:1;marker-end:url(#marker5309)" />
          <circle
             style="fill:#000000;fill-opacity:1;stroke:none;stroke-width:4;stroke-miterlimit:4;stroke-dasharray:none;stroke-dashoffset:0;stroke-opacity:0.56172844"
             id="circle5803"
             cx="228.04195"
             cy="544.508"
             r="8.3337584" />
        </g>
      </g>
      <g
         id="g5805"
         transform="translate(-87.857142,37.857143)">
        <path
           sodipodi:nodetypes="ccc"
           style="fill:none;fill-rule:evenodd;stroke:#800000;stroke-width:2;stroke-linecap:butt;stroke-linejoin:miter;stroke-miterlimit:4;stroke-dasharray:4, 2;stroke-dashoffset:0;stroke-opacity:1"
           d="m 389.38874,616.87368 69.28826,30.23278 67.94635,-30.6512"
           id="path5807"
           inkscape:connector-curvature="0" />
        <g
           transform="translate(229.87746,102.1367)"
           id="g5809">
          <path
             style="fill:#000080;fill-rule:evenodd;stroke:#000080;stroke-width:2;stroke-linecap:butt;stroke-linejoin:miter;stroke-miterlimit:4;stroke-dasharray:none;stroke-opacity:1;marker-end:url(#marker5309)"
             d="m 228.29449,546.27578 0,-48.9924"
             id="path5811"
             inkscape:connector-curvature="0" />
          <circle
             r="8.3337584"
             cy="544.508"
             cx="228.04195"
             id="circle5813"
             style="fill:#000000;fill-opacity:1;stroke:none;stroke-width:4;stroke-miterlimit:4;stroke-dasharray:none;stroke-dashoffset:0;stroke-opacity:0.56172844" />
        </g>
      </g>
    </g>
    <g
       transform="translate(62.629458,-34.310164)"
       id="g6560">
      <g
         transform="translate(-290,89.285715)"
         id="g5815">
        <path
           inkscape:connector-curvature="0"
           id="path5817"
           d="m 389.38874,616.87368 69.28826,30.23278 67.94635,-30.6512"
           style="fill:none;fill-rule:evenodd;stroke:#800000;stroke-width:2;stroke-linecap:butt;stroke-linejoin:miter;stroke-miterlimit:4;stroke-dasharray:4, 2;stroke-dashoffset:0;stroke-opacity:1"
           sodipodi:nodetypes="ccc" />
        <g
           id="g5819"
           transform="translate(229.87746,102.1367)">
          <path
             inkscape:connector-curvature="0"
             id="path5821"
             d="m 228.29449,546.27578 0,-48.9924"
             style="fill:#000080;fill-rule:evenodd;stroke:#000080;stroke-width:2;stroke-linecap:butt;stroke-linejoin:miter;stroke-miterlimit:4;stroke-dasharray:none;stroke-opacity:1;marker-end:url(#marker5309)" />
          <circle
             style="fill:#000000;fill-opacity:1;stroke:none;stroke-width:4;stroke-miterlimit:4;stroke-dasharray:none;stroke-dashoffset:0;stroke-opacity:0.56172844"
             id="circle5823"
             cx="228.04195"
             cy="544.508"
             r="8.3337584" />
        </g>
      </g>
      <path
         sodipodi:nodetypes="czc"
         inkscape:connector-curvature="0"
         id="path5833"
         d="m 93.420633,755.58507 c 0,0 14.113557,-11.7941 73.741137,-10.10152 59.62758,1.69257 69.70052,14.14213 69.70052,14.14213"
         style="fill:none;fill-rule:evenodd;stroke:#800080;stroke-width:4;stroke-linecap:butt;stroke-linejoin:miter;stroke-miterlimit:4;stroke-dasharray:none;stroke-opacity:1" />
      <g
         id="g5866"
         transform="matrix(0.8660254,0.5,-0.5,0.8660254,163.49136,-41.608194)">
        <path
           sodipodi:nodetypes="ccc"
           style="fill:none;fill-rule:evenodd;stroke:#800000;stroke-width:2;stroke-linecap:butt;stroke-linejoin:miter;stroke-miterlimit:4;stroke-dasharray:4, 2;stroke-dashoffset:0;stroke-opacity:1"
           d="m 389.38874,616.87368 69.28826,30.23278 67.94635,-30.6512"
           id="path5868"
           inkscape:connector-curvature="0" />
        <g
           transform="translate(229.87746,102.1367)"
           id="g5870">
          <path
             style="fill:#000080;fill-rule:evenodd;stroke:#000080;stroke-width:2;stroke-linecap:butt;stroke-linejoin:miter;stroke-miterlimit:4;stroke-dasharray:none;stroke-opacity:1;marker-end:url(#marker5309)"
             d="m 228.29449,546.27578 0,-48.9924"
             id="path5872"
             inkscape:connector-curvature="0" />
          <circle
             r="8.3337584"
             cy="544.508"
             cx="228.04195"
             id="circle5874"
             style="fill:#000000;fill-opacity:1;stroke:none;stroke-width:4;stroke-miterlimit:4;stroke-dasharray:none;stroke-dashoffset:0;stroke-opacity:0.56172844" />
        </g>
      </g>
      <g
         id="g5876"
         transform="matrix(0.8660254,-0.5,0.5,0.8660254,-620.76749,411.40349)">
        <path
           sodipodi:nodetypes="ccc"
           style="fill:none;fill-rule:evenodd;stroke:#800000;stroke-width:2;stroke-linecap:butt;stroke-linejoin:miter;stroke-miterlimit:4;stroke-dasharray:4, 2;stroke-dashoffset:0;stroke-opacity:1"
           d="m 389.38874,616.87368 69.28826,30.23278 67.94635,-30.6512"
           id="path5878"
           inkscape:connector-curvature="0" />
        <g
           transform="translate(229.87746,102.1367)"
           id="g5880">
          <path
             style="fill:#000080;fill-rule:evenodd;stroke:#000080;stroke-width:2;stroke-linecap:butt;stroke-linejoin:miter;stroke-miterlimit:4;stroke-dasharray:none;stroke-opacity:1;marker-end:url(#marker5309)"
             d="m 228.29449,546.27578 0,-48.9924"
             id="path5882"
             inkscape:connector-curvature="0" />
          <circle
             r="8.3337584"
             cy="544.508"
             cx="228.04195"
             id="circle5884"
             style="fill:#000000;fill-opacity:1;stroke:none;stroke-width:4;stroke-miterlimit:4;stroke-dasharray:none;stroke-dashoffset:0;stroke-opacity:0.56172844" />
        </g>
      </g>
    </g>
    <g
       id="g7323"
       transform="matrix(0.85936848,0,0,0.8469019,56.872706,106.26148)">
      <path
         sodipodi:nodetypes="ccc"
         style="fill:none;fill-rule:evenodd;stroke:#800000;stroke-width:1.33393741;stroke-linecap:butt;stroke-linejoin:miter;stroke-miterlimit:4;stroke-dasharray:2.6678748, 1.3339374;stroke-dashoffset:0;stroke-opacity:1"
         d="m 324.98407,793.2541 24.17682,18.0308 25.07283,-16.63942"
         id="path5888"
         inkscape:connector-curvature="0" />
      <path
         inkscape:connector-curvature="0"
         id="path5892"
         d="m 349.13735,776.25702 0,-18.62672"
         style="fill:#000080;fill-rule:evenodd;stroke:#000080;stroke-width:1.14248216;stroke-linecap:butt;stroke-linejoin:miter;stroke-miterlimit:4;stroke-dasharray:none;stroke-opacity:1;marker-end:url(#marker5902)" />
      <rect
         style="fill:none;fill-opacity:1;stroke:#666666;stroke-width:1;stroke-miterlimit:4;stroke-dasharray:none;stroke-dashoffset:0;stroke-opacity:0.56172844"
         id="rect6122"
         width="160.01599"
         height="67.32312"
         x="312.01212"
         y="751.4563" />
      <g
         style="font-style:normal;font-variant:normal;font-weight:normal;font-stretch:normal;letter-spacing:normal;word-spacing:normal;text-anchor:start;fill:none;fill-opacity:1;fill-rule:evenodd;stroke:#000000;stroke-linecap:butt;stroke-linejoin:miter;stroke-miterlimit:10.43299961;stroke-dasharray:none;stroke-dashoffset:0;stroke-opacity:1"
         id="content"
         transform="matrix(1.7165687,0,0,-1.5457788,14.06848,1862.0249)"
         xml:space="preserve"
         stroke-miterlimit="10.433"
         font-style="normal"
         font-variant="normal"
         font-weight="normal"
         font-stretch="normal"
         font-size-adjust="none"
         letter-spacing="normal"
         word-spacing="normal"
         ns0:text="Normals"
         ns0:preamble=""><path
           style="fill:#000000;stroke-width:0"
           inkscape:connector-curvature="0"
           d="m 225.74,713.78 -0.01,0.01 -0.01,0.01 0,0.01 -0.01,0.01 -0.01,0.01 0,0.01 -0.01,0 -0.01,0.01 0,0.01 -0.01,0 0,0.01 -0.01,0 -0.01,0.01 0,0 -0.01,0.01 -0.01,0 0,0 -0.01,0.01 -0.01,0 -0.01,0 -0.01,0 -0.01,0 -0.01,0.01 -0.01,0 -0.01,0 -0.01,0 -0.01,0 -0.02,0 -0.01,0 -0.01,0 0,0 -0.01,0 -0.01,0 -0.01,0 -0.01,0 -1.69,0 0,-0.31 0.29,0 c 0.15,0 0.35,-0.01 0.5,-0.02 0.22,-0.03 0.24,-0.04 0.24,-0.23 l 0,-5.18 c 0,-0.27 0,-0.74 -1.03,-0.74 l 0,-0.31 c 0.35,0.02 0.84,0.04 1.16,0.04 0.33,0 0.82,-0.02 1.17,-0.04 l 0,0.31 c -1.03,0 -1.03,0.47 -1.03,0.74 l 0,5.16 c 0.05,-0.05 0.06,-0.06 0.1,-0.12 l 4.06,-5.96 c 0.09,-0.11 0.1,-0.13 0.17,-0.13 0.14,0 0.14,0.07 0.14,0.26 l 0,5.49 c 0,0.27 0,0.73 1.03,0.73 l 0,0.31 c -0.35,-0.01 -0.84,-0.03 -1.17,-0.03 -0.33,0 -0.81,0.02 -1.16,0.03 l 0,-0.31 c 1.02,0 1.02,-0.46 1.02,-0.73 l 0,-4.25 z"
           id="path6252" /><path
           style="fill:#000000;stroke-width:0"
           inkscape:connector-curvature="0"
           d="m 235.59,709.25 0,0.12 -0.01,0.12 -0.02,0.11 -0.02,0.12 -0.02,0.11 -0.03,0.11 -0.03,0.11 -0.04,0.1 -0.05,0.1 -0.05,0.1 -0.05,0.1 -0.06,0.09 -0.06,0.1 -0.07,0.08 -0.06,0.09 -0.08,0.08 -0.07,0.08 -0.08,0.07 -0.09,0.07 -0.08,0.06 -0.09,0.07 -0.1,0.05 -0.09,0.05 -0.1,0.05 -0.1,0.04 -0.1,0.04 -0.1,0.03 -0.11,0.03 -0.11,0.02 -0.11,0.01 -0.11,0.01 -0.11,0.01 -0.01,-0.22 c 0.44,0 0.87,-0.22 1.13,-0.65 0.25,-0.43 0.25,-1 0.25,-1.38 0,-0.36 0,-0.89 -0.22,-1.33 -0.21,-0.45 -0.65,-0.74 -1.15,-0.74 l 0,0 c -0.43,0 -0.86,0.21 -1.13,0.67 -0.25,0.44 -0.25,1.04 -0.25,1.4 0,0.39 0,0.92 0.24,1.36 0.27,0.46 0.73,0.67 1.13,0.67 l 0.01,0.22 c -1.24,0 -2.21,-1.09 -2.21,-2.33 0,-1.28 1.04,-2.23 2.2,-2.23 1.21,0 2.21,0.97 2.21,2.23 z"
           id="path6254" /><path
           style="fill:#000000;stroke-width:0"
           inkscape:connector-curvature="0"
           d="m 237.55,710.42 0,1.1 -1.39,-0.11 0,-0.31 c 0.7,0 0.78,-0.07 0.78,-0.56 l 0,-2.66 c 0,-0.45 -0.11,-0.45 -0.78,-0.45 l 0,-0.31 c 0.39,0.02 0.86,0.04 1.14,0.04 0.4,0 0.86,0 1.26,-0.04 l 0,0.31 -0.21,0 c -0.73,0 -0.75,0.11 -0.75,0.47 l 0,1.53 c 0,0.98 0.41,1.87 1.17,1.87 0.07,0 0.09,0 0.11,-0.01 -0.03,-0.01 -0.23,-0.13 -0.23,-0.39 0,-0.28 0.21,-0.43 0.43,-0.43 0.18,0 0.43,0.12 0.43,0.44 0,0.32 -0.31,0.61 -0.74,0.61 -0.73,0 -1.08,-0.67 -1.22,-1.1 z"
           id="path6256" /><path
           style="fill:#000000;stroke-width:0"
           inkscape:connector-curvature="0"
           d="m 240.88,710.54 0,-2.66 c 0,-0.45 -0.11,-0.45 -0.77,-0.45 l 0,-0.31 c 0.34,0.02 0.85,0.04 1.12,0.04 0.26,0 0.78,-0.02 1.11,-0.04 l 0,0.31 c -0.66,0 -0.77,0 -0.77,0.45 l 0,1.83 c 0,1.03 0.7,1.59 1.34,1.59 0.63,0 0.74,-0.54 0.74,-1.1 l 0,-2.32 c 0,-0.45 -0.11,-0.45 -0.78,-0.45 l 0,-0.31 c 0.35,0.02 0.86,0.04 1.13,0.04 0.26,0 0.77,-0.02 1.11,-0.04 l 0,0.31 c -0.67,0 -0.78,0 -0.78,0.45 l 0,1.83 c 0,1.03 0.71,1.59 1.35,1.59 0.62,0 0.73,-0.54 0.73,-1.1 l 0,-2.32 c 0,-0.45 -0.11,-0.45 -0.77,-0.45 l 0,-0.31 c 0.35,0.02 0.85,0.04 1.12,0.04 0.26,0 0.78,-0.02 1.12,-0.04 l 0,0.31 c -0.52,0 -0.77,0 -0.78,0.3 l 0,1.9 c 0,0.85 0,1.16 -0.31,1.52 -0.14,0.17 -0.47,0.37 -1.04,0.37 -0.84,0 -1.28,-0.6 -1.45,-0.98 -0.14,0.87 -0.87,0.98 -1.32,0.98 -0.72,0 -1.19,-0.43 -1.47,-1.05 l 0,1.05 -1.4,-0.11 0,-0.31 c 0.69,0 0.77,-0.07 0.77,-0.56 z"
           id="path6258" /><path
           style="fill:#000000;stroke-width:0"
           inkscape:connector-curvature="0"
           d="m 251.4,707.88 0.01,-0.04 0,-0.03 0.01,-0.04 0.01,-0.04 0.01,-0.04 0.01,-0.03 0.01,-0.04 0.01,-0.03 0.02,-0.04 0.02,-0.03 0.01,-0.04 0.02,-0.03 0.02,-0.03 0.02,-0.04 0.03,-0.03 0.02,-0.03 0.03,-0.02 0.02,-0.03 0.03,-0.03 0.03,-0.02 0.03,-0.02 0.03,-0.03 0.03,-0.02 0.04,-0.01 0.03,-0.02 0.04,-0.01 0.03,-0.02 0.04,-0.01 0.04,0 0.04,-0.01 0.05,0 0.04,0 c 0.21,0 0.81,0.13 0.81,0.94 l 0,0.56 -0.24,0 0,-0.56 c 0,-0.58 -0.25,-0.64 -0.36,-0.64 -0.33,0 -0.37,0.45 -0.37,0.5 l 0,1.99 c 0,0.41 0,0.8 -0.36,1.17 -0.39,0.39 -0.88,0.55 -1.36,0.55 -0.82,0 -1.5,-0.47 -1.5,-1.13 0,-0.29 0.19,-0.46 0.45,-0.46 0.28,0 0.46,0.19 0.46,0.45 0,0.12 -0.05,0.45 -0.51,0.46 0.27,0.35 0.76,0.46 1.08,0.46 0.49,0 1.05,-0.39 1.05,-1.27 l 0,-0.37 0,-0.21 0,-0.99 c 0,-0.95 -0.71,-1.29 -1.16,-1.29 -0.49,0 -0.9,0.35 -0.9,0.85 0,0.54 0.42,1.37 2.06,1.43 l 0,0 0,0.21 c -0.51,-0.03 -1.2,-0.06 -1.83,-0.36 -0.74,-0.34 -0.99,-0.85 -0.99,-1.29 0,-0.81 0.96,-1.05 1.59,-1.05 0.66,0 1.11,0.39 1.3,0.86 z"
           id="path6260" /><path
           style="fill:#000000;stroke-width:0"
           inkscape:connector-curvature="0"
           d="m 254.83,714.02 -1.43,-0.11 0,-0.31 c 0.7,0 0.78,-0.07 0.78,-0.55 l 0,-5.17 c 0,-0.45 -0.11,-0.45 -0.78,-0.45 l 0,-0.31 c 0.33,0.02 0.86,0.04 1.1,0.04 0.25,0 0.74,-0.02 1.11,-0.04 l 0,0.31 c -0.67,0 -0.78,0 -0.78,0.45 z"
           id="path6262" /><path
           style="fill:#000000;stroke-width:0"
           inkscape:connector-curvature="0"
           d="m 257.91,709.05 0.02,0 0.03,-0.01 0.02,0 0.04,-0.01 0.03,-0.01 0.03,-0.01 0.04,-0.01 0.04,-0.01 0.04,-0.01 0.04,-0.01 0.05,-0.02 0.04,-0.02 0.05,-0.01 0.04,-0.03 0.04,-0.02 0.05,-0.02 0.04,-0.03 0.04,-0.03 0.04,-0.03 0.04,-0.03 0.04,-0.03 0.04,-0.04 0.03,-0.04 0.03,-0.04 0.03,-0.05 0.01,-0.02 0.02,-0.03 0.01,-0.02 0.01,-0.03 0.01,-0.02 0.01,-0.03 0,-0.03 0.01,-0.02 0.01,-0.03 0,-0.03 0.01,-0.03 0,-0.04 0,-0.03 0,-0.03 c 0,-0.51 -0.35,-0.91 -1.12,-0.91 -0.84,0 -1.2,0.57 -1.39,1.42 -0.03,0.12 -0.04,0.16 -0.13,0.16 -0.13,0 -0.13,-0.07 -0.13,-0.24 l 0,-1.32 c 0,-0.16 0,-0.23 0.11,-0.23 0.05,0 0.06,0.01 0.24,0.19 0.03,0.02 0.03,0.04 0.2,0.23 0.44,-0.41 0.89,-0.42 1.1,-0.42 1.14,0 1.6,0.66 1.6,1.38 0,0.52 -0.3,0.82 -0.42,0.94 -0.33,0.32 -0.71,0.4 -1.13,0.48 -0.56,0.11 -1.23,0.23 -1.23,0.81 0,0.35 0.26,0.76 1.12,0.76 1.09,0 1.14,-0.9 1.16,-1.21 0.01,-0.09 0.1,-0.09 0.12,-0.09 0.13,0 0.13,0.06 0.13,0.24 l 0,1.01 c 0,0.17 0,0.24 -0.11,0.24 -0.05,0 -0.07,0 -0.2,-0.12 -0.03,-0.04 -0.13,-0.13 -0.17,-0.16 -0.37,0.28 -0.78,0.28 -0.93,0.28 -1.21,0 -1.59,-0.67 -1.59,-1.23 0,-0.34 0.16,-0.62 0.42,-0.84 0.32,-0.26 0.6,-0.32 1.32,-0.46 z"
           id="path6264" /></g>      <g
         ns0:preamble=""
         ns0:text="Cones"
         word-spacing="normal"
         letter-spacing="normal"
         font-size-adjust="none"
         font-stretch="normal"
         font-weight="normal"
         font-variant="normal"
         font-style="normal"
         stroke-miterlimit="10.433"
         xml:space="preserve"
         transform="matrix(1.7165687,0,0,-1.5457788,17.163144,1900.5764)"
         id="g6438"
         style="font-style:normal;font-variant:normal;font-weight:normal;font-stretch:normal;letter-spacing:normal;word-spacing:normal;text-anchor:start;fill:none;fill-opacity:1;fill-rule:evenodd;stroke:#000000;stroke-linecap:butt;stroke-linejoin:miter;stroke-miterlimit:10.43299961;stroke-dasharray:none;stroke-dashoffset:0;stroke-opacity:1"><path
           id="path6440"
           d="m 223.99,710.52 0,-0.19 0.02,-0.19 0.02,-0.18 0.03,-0.18 0.04,-0.18 0.05,-0.18 0.06,-0.16 0.06,-0.17 0.07,-0.16 0.08,-0.16 0.08,-0.15 0.1,-0.15 0.1,-0.14 0.1,-0.13 0.11,-0.13 0.12,-0.13 0.12,-0.12 0.12,-0.11 0.14,-0.1 0.13,-0.1 0.14,-0.09 0.15,-0.09 0.15,-0.08 0.15,-0.07 0.16,-0.06 0.16,-0.06 0.16,-0.04 0.16,-0.04 0.17,-0.03 0.17,-0.03 0.17,-0.01 0.17,0 c 1.62,0 2.6,1.38 2.6,2.53 0,0.1 0,0.17 -0.13,0.17 -0.11,0 -0.11,-0.06 -0.12,-0.16 -0.08,-1.42 -1.15,-2.24 -2.23,-2.24 -0.61,0 -2.56,0.34 -2.56,3.3 0,2.97 1.94,3.31 2.55,3.31 1.09,0 1.97,-0.9 2.17,-2.35 0.02,-0.14 0.02,-0.17 0.16,-0.17 0.16,0 0.16,0.03 0.16,0.24 l 0,2.35 c 0,0.17 0,0.24 -0.11,0.24 -0.04,0 -0.08,0 -0.16,-0.12 l -0.5,-0.74 c -0.37,0.36 -0.87,0.86 -1.83,0.86 -1.86,0 -3.46,-1.58 -3.46,-3.61 z"
           inkscape:connector-curvature="0"
           style="fill:#000000;stroke-width:0" /><path
           id="path6442"
           d="m 235.31,709.25 0,0.12 -0.01,0.12 -0.01,0.11 -0.02,0.12 -0.03,0.11 -0.03,0.11 -0.03,0.11 -0.04,0.1 -0.05,0.1 -0.04,0.1 -0.06,0.1 -0.06,0.09 -0.06,0.1 -0.06,0.08 -0.07,0.09 -0.08,0.08 -0.07,0.08 -0.08,0.07 -0.08,0.07 -0.09,0.06 -0.09,0.07 -0.09,0.05 -0.1,0.05 -0.09,0.05 -0.1,0.04 -0.11,0.04 -0.1,0.03 -0.11,0.03 -0.1,0.02 -0.11,0.01 -0.11,0.01 -0.12,0.01 -0.01,-0.22 c 0.44,0 0.87,-0.22 1.13,-0.65 0.26,-0.43 0.26,-1 0.26,-1.38 0,-0.36 0,-0.89 -0.22,-1.33 -0.22,-0.45 -0.66,-0.74 -1.16,-0.74 l 0,0 c -0.42,0 -0.86,0.21 -1.13,0.67 -0.25,0.44 -0.25,1.04 -0.25,1.4 0,0.39 0,0.92 0.24,1.36 0.27,0.46 0.74,0.67 1.13,0.67 l 0.01,0.22 c -1.24,0 -2.2,-1.09 -2.2,-2.33 0,-1.28 1.03,-2.23 2.19,-2.23 1.21,0 2.21,0.97 2.21,2.23 z"
           inkscape:connector-curvature="0"
           style="fill:#000000;stroke-width:0" /><path
           id="path6444"
           d="m 236.7,710.54 0,-2.66 c 0,-0.45 -0.11,-0.45 -0.77,-0.45 l 0,-0.31 c 0.34,0.02 0.85,0.04 1.12,0.04 0.26,0 0.78,-0.02 1.11,-0.04 l 0,0.31 c -0.66,0 -0.77,0 -0.77,0.45 l 0,1.83 c 0,1.03 0.71,1.59 1.34,1.59 0.63,0 0.74,-0.54 0.74,-1.1 l 0,-2.32 c 0,-0.45 -0.11,-0.45 -0.78,-0.45 l 0,-0.31 c 0.35,0.02 0.86,0.04 1.13,0.04 0.25,0 0.77,-0.02 1.11,-0.04 l 0,0.31 c -0.52,0 -0.77,0 -0.78,0.3 l 0,1.9 c 0,0.85 0,1.16 -0.3,1.52 -0.14,0.17 -0.47,0.37 -1.05,0.37 -0.72,0 -1.19,-0.43 -1.47,-1.05 l 0,1.05 -1.4,-0.11 0,-0.31 c 0.69,0 0.77,-0.07 0.77,-0.56 z"
           inkscape:connector-curvature="0"
           style="fill:#000000;stroke-width:0" /><path
           id="path6446"
           d="m 242.25,709.42 0.01,0.21 c 0.06,1.48 0.89,1.73 1.23,1.73 1.03,0 1.13,-1.34 1.13,-1.73 l -2.36,0 -0.01,-0.21 2.77,0 c 0.22,0 0.25,0 0.25,0.21 0,0.98 -0.53,1.95 -1.78,1.95 -1.15,0 -2.07,-1.03 -2.07,-2.27 0,-1.33 1.05,-2.29 2.19,-2.29 1.21,0 1.66,1.1 1.66,1.29 0,0.1 -0.08,0.12 -0.13,0.12 -0.09,0 -0.11,-0.06 -0.13,-0.14 -0.34,-1.03 -1.24,-1.03 -1.34,-1.03 -0.5,0 -0.9,0.3 -1.12,0.67 -0.3,0.48 -0.3,1.13 -0.3,1.49 z"
           inkscape:connector-curvature="0"
           style="fill:#000000;stroke-width:0" /><path
           id="path6448"
           d="m 247.64,709.05 0.02,0 0.03,-0.01 0.03,0 0.03,-0.01 0.03,-0.01 0.04,-0.01 0.03,-0.01 0.04,-0.01 0.05,-0.01 0.04,-0.01 0.04,-0.02 0.04,-0.02 0.05,-0.01 0.04,-0.03 0.05,-0.02 0.04,-0.02 0.04,-0.03 0.04,-0.03 0.05,-0.03 0.04,-0.03 0.03,-0.03 0.04,-0.04 0.03,-0.04 0.03,-0.04 0.03,-0.05 0.02,-0.02 0.01,-0.03 0.01,-0.02 0.01,-0.03 0.01,-0.02 0.01,-0.03 0.01,-0.03 0,-0.02 0.01,-0.03 0.01,-0.03 0,-0.03 0,-0.04 0,-0.03 0.01,-0.03 c 0,-0.51 -0.35,-0.91 -1.13,-0.91 -0.84,0 -1.19,0.57 -1.38,1.42 -0.03,0.12 -0.04,0.16 -0.14,0.16 -0.13,0 -0.13,-0.07 -0.13,-0.24 l 0,-1.32 c 0,-0.16 0,-0.23 0.11,-0.23 0.05,0 0.06,0.01 0.25,0.19 0.02,0.02 0.02,0.04 0.2,0.23 0.43,-0.41 0.88,-0.42 1.09,-0.42 1.15,0 1.6,0.66 1.6,1.38 0,0.52 -0.3,0.82 -0.41,0.94 -0.33,0.32 -0.72,0.4 -1.14,0.48 -0.56,0.11 -1.22,0.23 -1.22,0.81 0,0.35 0.25,0.76 1.11,0.76 1.1,0 1.14,-0.9 1.16,-1.21 0.01,-0.09 0.11,-0.09 0.12,-0.09 0.13,0 0.13,0.06 0.13,0.24 l 0,1.01 c 0,0.17 0,0.24 -0.11,0.24 -0.05,0 -0.06,0 -0.19,-0.12 -0.03,-0.04 -0.13,-0.13 -0.17,-0.16 -0.38,0.28 -0.79,0.28 -0.94,0.28 -1.21,0 -1.59,-0.67 -1.59,-1.23 0,-0.34 0.16,-0.62 0.43,-0.84 0.32,-0.26 0.59,-0.32 1.31,-0.46 z"
           inkscape:connector-curvature="0"
           style="fill:#000000;stroke-width:0" /></g>    </g>
    <g
       style="font-style:normal;font-variant:normal;font-weight:normal;font-stretch:normal;letter-spacing:normal;word-spacing:normal;text-anchor:start;fill:none;fill-opacity:1;fill-rule:evenodd;stroke:#000000;stroke-linecap:butt;stroke-linejoin:miter;stroke-miterlimit:10.43299961;stroke-dasharray:none;stroke-dashoffset:0;stroke-opacity:1"
       id="g6852"
       transform="matrix(2,0,0,-2,-239.48752,2192.8174)"
       xml:space="preserve"
       stroke-miterlimit="10.433"
       font-style="normal"
       font-variant="normal"
       font-weight="normal"
       font-stretch="normal"
       font-size-adjust="none"
       letter-spacing="normal"
       word-spacing="normal"
       ns0:text="Pass"
       ns0:preamble=""><path
         style="fill:#000000;stroke-width:0"
         inkscape:connector-curvature="0"
         d="m 225.69,710.26 -0.03,0.26 0,2.69 c 0,0.32 0.02,0.39 0.49,0.39 l 0.88,0 c 1.59,0 1.59,-1.05 1.59,-1.54 0,-0.47 0,-1.54 -1.59,-1.54 l -1.37,0 0.03,-0.26 1.68,0 c 1.2,0 2.27,0.81 2.27,1.8 0,0.98 -0.99,1.85 -2.35,1.85 l -3.51,0 0,-0.31 0.24,0 c 0.77,0 0.78,-0.11 0.78,-0.46 l 0,-5.24 c 0,-0.36 -0.01,-0.47 -0.78,-0.47 l -0.24,0 0,-0.31 c 0.35,0.04 1.09,0.04 1.46,0.04 0.38,0 1.13,0 1.47,-0.04 l 0,0.31 -0.23,0 c -0.77,0 -0.79,0.11 -0.79,0.47 z"
         id="path6854" /><path
         style="fill:#000000;stroke-width:0"
         inkscape:connector-curvature="0"
         d="m 233.25,707.88 0,-0.04 0.01,-0.03 0,-0.04 0.01,-0.04 0.01,-0.04 0.01,-0.03 0.02,-0.04 0.01,-0.03 0.01,-0.04 0.02,-0.03 0.02,-0.04 0.02,-0.03 0.02,-0.03 0.02,-0.04 0.02,-0.03 0.02,-0.03 0.03,-0.02 0.03,-0.03 0.02,-0.03 0.03,-0.02 0.03,-0.02 0.03,-0.03 0.04,-0.02 0.03,-0.01 0.03,-0.02 0.04,-0.01 0.04,-0.02 0.04,-0.01 0.04,0 0.04,-0.01 0.04,0 0.04,0 c 0.21,0 0.82,0.13 0.82,0.94 l 0,0.56 -0.25,0 0,-0.56 c 0,-0.58 -0.25,-0.64 -0.36,-0.64 -0.33,0 -0.37,0.45 -0.37,0.5 l 0,1.99 c 0,0.41 0,0.8 -0.35,1.17 -0.39,0.39 -0.89,0.55 -1.37,0.55 -0.81,0 -1.5,-0.47 -1.5,-1.13 0,-0.29 0.2,-0.46 0.46,-0.46 0.28,0 0.45,0.19 0.45,0.45 0,0.12 -0.04,0.45 -0.5,0.46 0.27,0.35 0.75,0.46 1.07,0.46 0.49,0 1.06,-0.39 1.06,-1.27 l 0,-0.37 0,-0.21 0,-0.99 c 0,-0.95 -0.72,-1.29 -1.17,-1.29 -0.49,0 -0.89,0.35 -0.89,0.85 0,0.54 0.42,1.37 2.06,1.43 l 0,0 0,0.21 c -0.51,-0.03 -1.21,-0.06 -1.83,-0.36 -0.75,-0.34 -1,-0.85 -1,-1.29 0,-0.81 0.97,-1.05 1.59,-1.05 0.66,0 1.12,0.39 1.31,0.86 z"
         id="path6856" /><path
         style="fill:#000000;stroke-width:0"
         inkscape:connector-curvature="0"
         d="m 236.98,709.05 0.03,0 0.02,-0.01 0.03,0 0.03,-0.01 0.03,-0.01 0.04,-0.01 0.04,-0.01 0.04,-0.01 0.04,-0.01 0.04,-0.01 0.04,-0.02 0.05,-0.02 0.04,-0.01 0.05,-0.03 0.04,-0.02 0.04,-0.02 0.05,-0.03 0.04,-0.03 0.04,-0.03 0.04,-0.03 0.04,-0.03 0.03,-0.04 0.04,-0.04 0.03,-0.04 0.03,-0.05 0.01,-0.02 0.01,-0.03 0.01,-0.02 0.01,-0.03 0.01,-0.02 0.01,-0.03 0.01,-0.03 0.01,-0.02 0,-0.03 0.01,-0.03 0,-0.03 0.01,-0.04 0,-0.03 0,-0.03 c 0,-0.51 -0.35,-0.91 -1.12,-0.91 -0.84,0 -1.2,0.57 -1.39,1.42 -0.03,0.12 -0.04,0.16 -0.14,0.16 -0.13,0 -0.13,-0.07 -0.13,-0.24 l 0,-1.32 c 0,-0.16 0,-0.23 0.11,-0.23 0.05,0 0.06,0.01 0.25,0.19 0.02,0.02 0.02,0.04 0.2,0.23 0.44,-0.41 0.89,-0.42 1.1,-0.42 1.14,0 1.6,0.66 1.6,1.38 0,0.52 -0.3,0.82 -0.42,0.94 -0.33,0.32 -0.72,0.4 -1.13,0.48 -0.56,0.11 -1.23,0.23 -1.23,0.81 0,0.35 0.26,0.76 1.12,0.76 1.09,0 1.14,-0.9 1.16,-1.21 0.01,-0.09 0.1,-0.09 0.12,-0.09 0.13,0 0.13,0.06 0.13,0.24 l 0,1.01 c 0,0.17 0,0.24 -0.11,0.24 -0.05,0 -0.07,0 -0.2,-0.12 -0.03,-0.04 -0.13,-0.13 -0.17,-0.16 -0.38,0.28 -0.79,0.28 -0.93,0.28 -1.22,0 -1.6,-0.67 -1.6,-1.23 0,-0.34 0.16,-0.62 0.43,-0.84 0.32,-0.26 0.6,-0.32 1.31,-0.46 z"
         id="path6858" /><path
         style="fill:#000000;stroke-width:0"
         inkscape:connector-curvature="0"
         d="m 240.91,709.05 0.03,0 0.02,-0.01 0.03,0 0.03,-0.01 0.03,-0.01 0.04,-0.01 0.04,-0.01 0.04,-0.01 0.04,-0.01 0.04,-0.01 0.04,-0.02 0.05,-0.02 0.04,-0.01 0.05,-0.03 0.04,-0.02 0.04,-0.02 0.05,-0.03 0.04,-0.03 0.04,-0.03 0.04,-0.03 0.04,-0.03 0.03,-0.04 0.04,-0.04 0.03,-0.04 0.03,-0.05 0.01,-0.02 0.01,-0.03 0.01,-0.02 0.01,-0.03 0.01,-0.02 0.01,-0.03 0.01,-0.03 0.01,-0.02 0,-0.03 0.01,-0.03 0,-0.03 0.01,-0.04 0,-0.03 0,-0.03 c 0,-0.51 -0.35,-0.91 -1.13,-0.91 -0.83,0 -1.19,0.57 -1.38,1.42 -0.03,0.12 -0.04,0.16 -0.14,0.16 -0.13,0 -0.13,-0.07 -0.13,-0.24 l 0,-1.32 c 0,-0.16 0,-0.23 0.11,-0.23 0.05,0 0.06,0.01 0.25,0.19 0.02,0.02 0.02,0.04 0.2,0.23 0.44,-0.41 0.89,-0.42 1.09,-0.42 1.15,0 1.61,0.66 1.61,1.38 0,0.52 -0.3,0.82 -0.42,0.94 -0.33,0.32 -0.72,0.4 -1.14,0.48 -0.55,0.11 -1.22,0.23 -1.22,0.81 0,0.35 0.26,0.76 1.11,0.76 1.1,0 1.15,-0.9 1.17,-1.21 0.01,-0.09 0.1,-0.09 0.12,-0.09 0.13,0 0.13,0.06 0.13,0.24 l 0,1.01 c 0,0.17 0,0.24 -0.11,0.24 -0.05,0 -0.07,0 -0.2,-0.12 -0.03,-0.04 -0.13,-0.13 -0.17,-0.16 -0.38,0.28 -0.79,0.28 -0.94,0.28 -1.21,0 -1.59,-0.67 -1.59,-1.23 0,-0.34 0.16,-0.62 0.43,-0.84 0.32,-0.26 0.6,-0.32 1.31,-0.46 z"
         id="path6860" /></g>    <g
       ns0:preamble=""
       ns0:text="Fail"
       word-spacing="normal"
       letter-spacing="normal"
       font-size-adjust="none"
       font-stretch="normal"
       font-weight="normal"
       font-variant="normal"
       font-style="normal"
       stroke-miterlimit="10.433"
       xml:space="preserve"
       transform="matrix(2,0,0,-2,69.025974,2192.9274)"
       id="g7032"
       style="font-style:normal;font-variant:normal;font-weight:normal;font-stretch:normal;letter-spacing:normal;word-spacing:normal;text-anchor:start;fill:none;fill-opacity:1;fill-rule:evenodd;stroke:#000000;stroke-linecap:butt;stroke-linejoin:miter;stroke-miterlimit:10.43299961;stroke-dasharray:none;stroke-dashoffset:0;stroke-opacity:1"><path
         id="path7034"
         d="m 229.22,713.88 -5.46,0 0,-0.31 0.24,0 c 0.76,0 0.79,-0.11 0.79,-0.47 l 0,-5.2 c 0,-0.36 -0.03,-0.47 -0.79,-0.47 l -0.24,0 0,-0.31 c 0.35,0.04 1.12,0.04 1.51,0.04 0.41,0 1.32,0 1.67,-0.04 l 0,0.31 -0.32,0 c -0.95,0 -0.95,0.13 -0.95,0.48 l 0,2.44 0.86,0 c 0.95,0 1.05,-0.31 1.05,-1.16 l 0.25,0 0,2.63 -0.25,0 c 0,-0.83 -0.1,-1.16 -1.05,-1.16 l -0.86,0 0,2.51 c 0,0.33 0.02,0.4 0.49,0.4 l 1.19,0 c 1.49,0 1.74,-0.55 1.9,-1.92 l 0.25,0 z"
         inkscape:connector-curvature="0"
         style="fill:#000000;stroke-width:0" /><path
         id="path7036"
         d="m 232.42,707.88 0.01,-0.04 0,-0.03 0.01,-0.04 0.01,-0.04 0.01,-0.04 0.01,-0.03 0.01,-0.04 0.01,-0.03 0.02,-0.04 0.02,-0.03 0.01,-0.04 0.02,-0.03 0.02,-0.03 0.02,-0.04 0.03,-0.03 0.02,-0.03 0.02,-0.02 0.03,-0.03 0.03,-0.03 0.03,-0.02 0.03,-0.02 0.03,-0.03 0.03,-0.02 0.03,-0.01 0.04,-0.02 0.04,-0.01 0.03,-0.02 0.04,-0.01 0.04,0 0.04,-0.01 0.04,0 0.05,0 c 0.21,0 0.81,0.13 0.81,0.94 l 0,0.56 -0.25,0 0,-0.56 c 0,-0.58 -0.24,-0.64 -0.35,-0.64 -0.33,0 -0.37,0.45 -0.37,0.5 l 0,1.99 c 0,0.41 0,0.8 -0.36,1.17 -0.39,0.39 -0.89,0.55 -1.36,0.55 -0.82,0 -1.5,-0.47 -1.5,-1.13 0,-0.29 0.19,-0.46 0.45,-0.46 0.28,0 0.46,0.19 0.46,0.45 0,0.12 -0.05,0.45 -0.51,0.46 0.27,0.35 0.76,0.46 1.08,0.46 0.49,0 1.05,-0.39 1.05,-1.27 l 0,-0.37 0,-0.21 0,-0.99 c 0,-0.95 -0.71,-1.29 -1.16,-1.29 -0.49,0 -0.9,0.35 -0.9,0.85 0,0.54 0.42,1.37 2.06,1.43 l 0,0 0,0.21 c -0.5,-0.03 -1.2,-0.06 -1.83,-0.36 -0.75,-0.34 -0.99,-0.85 -0.99,-1.29 0,-0.81 0.96,-1.05 1.59,-1.05 0.65,0 1.11,0.39 1.3,0.86 z"
         inkscape:connector-curvature="0"
         style="fill:#000000;stroke-width:0" /><path
         id="path7038"
         d="m 235.85,711.52 -1.39,-0.11 0,-0.31 c 0.64,0 0.73,-0.06 0.73,-0.55 l 0,-2.67 c 0,-0.45 -0.1,-0.45 -0.77,-0.45 l 0,-0.31 c 0.32,0.02 0.85,0.04 1.09,0.04 0.35,0 0.7,-0.02 1.04,-0.04 l 0,0.31 c -0.66,0 -0.7,0.05 -0.7,0.44 z"
         inkscape:connector-curvature="0"
         style="fill:#000000;stroke-width:0" /><path
         id="path7040"
         d="m 235.89,713.24 0,0.03 0,0.03 -0.01,0.03 0,0.03 -0.01,0.02 0,0.03 -0.01,0.03 -0.01,0.02 -0.01,0.02 -0.02,0.03 -0.01,0.02 -0.01,0.02 -0.02,0.02 -0.01,0.02 -0.02,0.02 -0.02,0.02 -0.02,0.01 -0.02,0.02 -0.02,0.01 -0.02,0.02 -0.02,0.01 -0.02,0.01 -0.02,0.01 -0.03,0.01 -0.02,0.01 -0.02,0.01 -0.03,0.01 -0.02,0 -0.03,0.01 -0.03,0 -0.02,0 -0.03,0 c -0.31,0 -0.52,-0.27 -0.52,-0.53 0,-0.26 0.21,-0.52 0.52,-0.52 0.28,0 0.53,0.21 0.53,0.52 z"
         inkscape:connector-curvature="0"
         style="fill:#000000;stroke-width:0" /><path
         id="path7042"
         d="m 238.62,714.02 -1.43,-0.11 0,-0.31 c 0.69,0 0.77,-0.07 0.77,-0.55 l 0,-5.17 c 0,-0.45 -0.11,-0.45 -0.77,-0.45 l 0,-0.31 c 0.32,0.02 0.85,0.04 1.1,0.04 0.25,0 0.74,-0.02 1.11,-0.04 l 0,0.31 c -0.67,0 -0.78,0 -0.78,0.45 z"
         inkscape:connector-curvature="0"
         style="fill:#000000;stroke-width:0" /></g>  </g>
</svg>
